<svg height="2030" width="720" xmlns="http://www.w3.org/2000/svg">
<rect height="2030" fill="#555" width="720"></rect>
<text fill="#7f7" font-family="Courier New" font-size="12" xml:space="preserve">
<tspan x="10" y="26"></tspan>
<tspan x="10" y="42">&gt; npmdoc-serverless@0.0.1 test /home/travis/build/npmdoc/node-npmdoc-serverless</tspan>
<tspan x="10" y="58">&gt; (set -e; export PORT=$(utility2 shServerPortRandom); utility2 test test.js)</tspan>
<tspan x="10" y="74"></tspan>
<tspan x="10" y="90"></tspan>
<tspan x="10" y="106">[MODE_BUILD=npmTest] - 2017-04-07T11:53:06Z - npm-testing /home/travis/build/npmdoc/node-npmdoc-\</tspan>
<tspan x="10" y="122">serverless</tspan>
<tspan x="10" y="138"></tspan>
<tspan x="10" y="154"></tspan>
<tspan x="10" y="170">covering $ /home/travis/.nvm/versions/node/v6.10.2/bin/node /home/travis/build/npmdoc/node-npmdo\</tspan>
<tspan x="10" y="186">c-serverless/test.js</tspan>
<tspan x="10" y="202">merging file:///home/travis/build/npmdoc/node-npmdoc-serverless/tmp/build/test-report.json to te\</tspan>
<tspan x="10" y="218">st-report</tspan>
<tspan x="10" y="234">&gt; server listening on http-port 36240</tspan>
<tspan x="10" y="250">created apidoc file:///home/travis/build/npmdoc/node-npmdoc-serverless/tmp/build/apidoc.html</tspan>
<tspan x="10" y="266"></tspan>
<tspan x="10" y="282"></tspan>
<tspan x="10" y="298">browserTest - created electron entry-page /home/travis/build/npmdoc/node-npmdoc-serverless/tmp/e\</tspan>
<tspan x="10" y="314">lectron.15b4842c5970.4b733251c7fac.html</tspan>
<tspan x="10" y="330"></tspan>
<tspan x="10" y="346">[node test-case 1 of 6 passed] - testCase_buildLib_default</tspan>
<tspan x="10" y="362">[node test-case 2 of 6 passed] - testCase_buildReadme_default</tspan>
<tspan x="10" y="378">[node test-case 3 of 6 passed] - testCase_buildTest_default</tspan>
<tspan x="10" y="394"></tspan>
<tspan x="10" y="410">browserTest - created electron entry-page /home/travis/build/npmdoc/node-npmdoc-serverless/tmp/e\</tspan>
<tspan x="10" y="426">lectron.15b4842c5c30.c6225f351891d.html</tspan>
<tspan x="10" y="442"></tspan>
<tspan x="10" y="458">Xlib:  extension "RANDR" missing on display ":99.0".</tspan>
<tspan x="10" y="474">Xlib:  extension "RANDR" missing on display ":99.0".</tspan>
<tspan x="10" y="490">merging file:///home/travis/build/npmdoc/node-npmdoc-serverless/tmp/build/test-report.json to te\</tspan>
<tspan x="10" y="506">st-report</tspan>
<tspan x="10" y="522">merging file:///home/travis/build/npmdoc/node-npmdoc-serverless/tmp/build/test-report.json to te\</tspan>
<tspan x="10" y="538">st-report</tspan>
<tspan x="10" y="554">Xlib:  extension "RANDR" missing on display ":99.0".</tspan>
<tspan x="10" y="570">[7136:0407/115308:WARNING:audio_manager.cc(314)] Multiple instances of AudioManager detected</tspan>
<tspan x="10" y="586">[7136:0407/115308:WARNING:audio_manager.cc(275)] Multiple instances of AudioManager detected</tspan>
<tspan x="10" y="602">Xlib:  extension "RANDR" missing on display ":99.0".</tspan>
<tspan x="10" y="618">[7138:0407/115308:WARNING:audio_manager.cc(314)] Multiple instances of AudioManager detected</tspan>
<tspan x="10" y="634">[7138:0407/115308:WARNING:audio_manager.cc(275)] Multiple instances of AudioManager detected</tspan>
<tspan x="10" y="650">[7168:0407/115308:ERROR:sandbox_linux.cc(343)] InitializeSandbox() called with multiple threads \</tspan>
<tspan x="10" y="666">in process gpu-process. </tspan>
<tspan x="10" y="682">[7184:0407/115308:ERROR:sandbox_linux.cc(343)] InitializeSandbox() called with multiple threads \</tspan>
<tspan x="10" y="698">in process gpu-process. </tspan>
<tspan x="10" y="714">[7136:0407/115308:ERROR:browser_gpu_channel_host_factory.cc(131)] Failed to create channel.</tspan>
<tspan x="10" y="730">[7138:0407/115308:ERROR:browser_gpu_channel_host_factory.cc(131)] Failed to create channel.</tspan>
<tspan x="10" y="746"></tspan>
<tspan x="10" y="762">browserTest - opened url /home/travis/build/npmdoc/node-npmdoc-serverless/tmp/build/apidoc.html</tspan>
<tspan x="10" y="778"></tspan>
<tspan x="10" y="794"></tspan>
<tspan x="10" y="810">browserTest - opened url http://127.0.0.1:36240?modeTest=1</tspan>
<tspan x="10" y="826"></tspan>
<tspan x="10" y="842">&gt; server listening on http-port 62437</tspan>
<tspan x="10" y="858">[7138:0407/115311:INFO:CONSOLE(250)] "----------|-----------|-----------|-----------|-----------\</tspan>
<tspan x="10" y="874">|</tspan>
<tspan x="10" y="890">File      |   % Stmts |% Branches |   % Funcs |   % Lines |</tspan>
<tspan x="10" y="906">----------|-----------|-----------|-----------|-----------|</tspan>
<tspan x="10" y="922">----------|-----------|-----------|-----------|-----------|</tspan>
<tspan x="10" y="938">All files |       100 |       100 |       100 |       100 |</tspan>
<tspan x="10" y="954">----------|-----------|-----------|-----------|-----------|</tspan>
<tspan x="10" y="970">", source: file:///home/travis/build/npmdoc/node-npmdoc-serverless/tmp/electron.15b4842c5c30.c62\</tspan>
<tspan x="10" y="986">25f351891d.html (250)</tspan>
<tspan x="10" y="1002">[7138:0407/115311:INFO:CONSOLE(250)] "created coverage file:///tmp/build/coverage.html/index.htm\</tspan>
<tspan x="10" y="1018">l", source: file:///home/travis/build/npmdoc/node-npmdoc-serverless/tmp/electron.15b4842c5c30.c6\</tspan>
<tspan x="10" y="1034">225f351891d.html (250)</tspan>
<tspan x="10" y="1050">[node test-case 4 of 6 passed] - testCase_buildApp_default</tspan>
<tspan x="10" y="1066"></tspan>
<tspan x="10" y="1082">browserTest - created screenCapture file:///home/travis/build/npmdoc/node-npmdoc-serverless/tmp/\</tspan>
<tspan x="10" y="1098">build/screenCapture.npmTest.browser._2Fhome_2Ftravis_2Fbuild_2Fnpmdoc_2Fnode-npmdoc-serverless_2\</tspan>
<tspan x="10" y="1114">Ftmp_2Fbuild_2Fapidoc.html.png</tspan>
<tspan x="10" y="1130"></tspan>
<tspan x="10" y="1146">browserTest - created screenCapture file:///home/travis/build/npmdoc/node-npmdoc-serverless/tmp/\</tspan>
<tspan x="10" y="1162">build/screenCapture.npmTest.browser._2Fhome_2Ftravis_2Fbuild_2Fnpmdoc_2Fnode-npmdoc-serverless_2\</tspan>
<tspan x="10" y="1178">Ftmp_2Fbuild_2Fapidoc.html.html</tspan>
<tspan x="10" y="1194"></tspan>
<tspan x="10" y="1210">browserTest - exit-code 0 - /home/travis/build/npmdoc/node-npmdoc-serverless/tmp/build/apidoc.ht\</tspan>
<tspan x="10" y="1226">ml</tspan>
<tspan x="10" y="1242"></tspan>
<tspan x="10" y="1258">[node test-case 5 of 6 passed] - testCase_buildApidoc_default</tspan>
<tspan x="10" y="1274"></tspan>
<tspan x="10" y="1290">browserTest - created screenCapture file:///home/travis/build/npmdoc/node-npmdoc-serverless/tmp/\</tspan>
<tspan x="10" y="1306">build/screenCapture.npmTest.browser..png</tspan>
<tspan x="10" y="1322"></tspan>
<tspan x="10" y="1338">browserTest - created screenCapture file:///home/travis/build/npmdoc/node-npmdoc-serverless/tmp/\</tspan>
<tspan x="10" y="1354">build/screenCapture.npmTest.browser..html</tspan>
<tspan x="10" y="1370"></tspan>
<tspan x="10" y="1386">browserTest - exit-code 0 - http://127.0.0.1:36240?modeTest=1</tspan>
<tspan x="10" y="1402"></tspan>
<tspan x="10" y="1418"></tspan>
<tspan x="10" y="1434">browserTest - merged coverage from /home/travis/build/npmdoc/node-npmdoc-serverless/tmp/coverage\</tspan>
<tspan x="10" y="1450">.npmTest.browser.%2F.json</tspan>
<tspan x="10" y="1466"></tspan>
<tspan x="10" y="1482"></tspan>
<tspan x="10" y="1498">browserTest - merging test-report from /home/travis/build/npmdoc/node-npmdoc-serverless/tmp/test\</tspan>
<tspan x="10" y="1514">-report.npmTest.browser.%2F.json</tspan>
<tspan x="10" y="1530"></tspan>
<tspan x="10" y="1546">[node test-case 6 of 6 passed] - testCase_webpage_default</tspan>
<tspan x="10" y="1562">-------------------------------|-----------|-----------|-----------|-----------|</tspan>
<tspan x="10" y="1578">File                           |   % Stmts |% Branches |   % Funcs |   % Lines |</tspan>
<tspan x="10" y="1594">-------------------------------|-----------|-----------|-----------|-----------|</tspan>
<tspan x="10" y="1610">   node-npmdoc-serverless/     |       100 |       100 |       100 |       100 |</tspan>
<tspan x="10" y="1626">      example.js               |       100 |       100 |       100 |       100 |</tspan>
<tspan x="10" y="1642">      lib.npmdoc_serverless.js |       100 |       100 |       100 |       100 |</tspan>
<tspan x="10" y="1658">      test.js                  |       100 |       100 |       100 |       100 |</tspan>
<tspan x="10" y="1674">-------------------------------|-----------|-----------|-----------|-----------|</tspan>
<tspan x="10" y="1690">All files                      |       100 |       100 |       100 |       100 |</tspan>
<tspan x="10" y="1706">-------------------------------|-----------|-----------|-----------|-----------|</tspan>
<tspan x="10" y="1722"></tspan>
<tspan x="10" y="1738">created coverage file:///home/travis/build/npmdoc/node-npmdoc-serverless/tmp/build/coverage.html\</tspan>
<tspan x="10" y="1754">/index.html</tspan>
<tspan x="10" y="1770">merging file:///home/travis/build/npmdoc/node-npmdoc-serverless/tmp/build/test-report.json to te\</tspan>
<tspan x="10" y="1786">st-report</tspan>
<tspan x="10" y="1802"></tspan>
<tspan x="10" y="1818">-------------------------------------------------------</tspan>
<tspan x="10" y="1834">| test-report - buildNpmdoc - node - linux v6.10.2 - 2017-04-07T11:52:26.935Z</tspan>
<tspan x="10" y="1850">|   56148 ms            0 failed        6 passed      |</tspan>
<tspan x="10" y="1866">-------------------------------------------------------</tspan>
<tspan x="10" y="1882"></tspan>
<tspan x="10" y="1898">created test-report file:///home/travis/build/npmdoc/node-npmdoc-serverless/tmp/build/test-repor\</tspan>
<tspan x="10" y="1914">t.html</tspan>
<tspan x="10" y="1930"></tspan>
<tspan x="10" y="1946"></tspan>
<tspan x="10" y="1962">npmTest - 0 failed tests</tspan>
<tspan x="10" y="1978"></tspan>
<tspan x="10" y="1994"></tspan>
<tspan x="10" y="2010">[MODE_BUILD=npmTest] - 2017-04-07T11:53:26Z - EXIT_CODE - 0</tspan>
</text>
</svg>
